inDegrees=no
num_controls=7
num_derivatives=13
num_iterations=138
num_multipliers=7
num_parameters=0
num_slacks=7
num_states=26
objective=5.319279
objective_accelerations=0.545395
objective_balance=0.048567
objective_effort=0.477709
objective_height=4.206379
objective_ligament=0.041229
solver_duration=1536.422732
status=Solve_Succeeded
success=true
DataType=double
version=3
OpenSimVersion=4.4-2022-07-23-0e9fedc
endheader
time	/jointset/ground_pelvis/pelvis_tilt/value	/jointset/ground_pelvis/pelvis_tx/value	/jointset/ground_pelvis/pelvis_ty/value	/jointset/hip_l/hip_flexion_l/value	/jointset/hip_l/hip_adduction_l/value	/jointset/hip_l/hip_rotation_l/value	/jointset/back/lumbar_extension/value	/jointset/patellofemoral_l/patellar_flexion_l/value	/jointset/knee_l/knee_flexion_l/value	/jointset/knee_l/knee_adduction_l/value	/jointset/knee_l/knee_rotation_l/value	/jointset/ankle_l/ankle_angle_l/value	/jointset/subtalar_l/subtalar_angle_l/value	/jointset/ground_pelvis/pelvis_tilt/speed	/jointset/ground_pelvis/pelvis_tx/speed	/jointset/ground_pelvis/pelvis_ty/speed	/jointset/hip_l/hip_flexion_l/speed	/jointset/hip_l/hip_adduction_l/speed	/jointset/hip_l/hip_rotation_l/speed	/jointset/back/lumbar_extension/speed	/jointset/patellofemoral_l/patellar_flexion_l/speed	/jointset/knee_l/knee_flexion_l/speed	/jointset/knee_l/knee_adduction_l/speed	/jointset/knee_l/knee_rotation_l/speed	/jointset/ankle_l/ankle_angle_l/speed	/jointset/subtalar_l/subtalar_angle_l/speed	/forceset/tau_hip_flexion_l	/forceset/tau_hip_adduction_l	/forceset/tau_hip_rotation_l	/forceset/tau_knee_flexion_l	/forceset/tau_ankle_angle_l	/forceset/tau_subtalar_angle_l	/forceset/tau_lumbar_extension	lambda_cid13_p0	lambda_cid13_p1	lambda_cid13_p2	lambda_cid13_p3	lambda_cid13_p4	lambda_cid13_p5	lambda_cid14_p0	/jointset/ground_pelvis/pelvis_tilt/accel	/jointset/ground_pelvis/pelvis_tx/accel	/jointset/ground_pelvis/pelvis_ty/accel	/jointset/hip_l/hip_flexion_l/accel	/jointset/hip_l/hip_adduction_l/accel	/jointset/hip_l/hip_rotation_l/accel	/jointset/back/lumbar_extension/accel	/jointset/patellofemoral_l/patellar_flexion_l/accel	/jointset/knee_l/knee_flexion_l/accel	/jointset/knee_l/knee_adduction_l/accel	/jointset/knee_l/knee_rotation_l/accel	/jointset/ankle_l/ankle_angle_l/accel	/jointset/subtalar_l/subtalar_angle_l/accel	gamma_cid13_p0	gamma_cid13_p1	gamma_cid13_p2	gamma_cid13_p3	gamma_cid13_p4	gamma_cid13_p5	gamma_cid14_p0
1.5	-0.4866414423463695	-0.1035988108871864	0.7646463742395871	1.281107268633584	-0.3099367581100005	-0.08589244005489112	-0.3449160462452097	0.5870662661932942	0.5870662661932858	-0.1744620484786218	0.173272243299124	-0.0520261341243883	-0.06581104490779073	0.8548781454746266	0.3393533537808217	0.4702712298237936	-2.367384994862602	0.06543359541858404	-0.4817010473669364	0.5649462460113981	-1.464630229575	-1.464630229575015	0.0007462972504037624	-0.01127549835586403	-0.008607421566800872	0.077033744359269	-0.2675381701921126	0.008930228170976858	-0.01839590551114523	-0.1802266952598188	0.185211025428671	0.04649194654387401	0.2346773255106856	20.03682826629694	-26.03903834038154	6.420939190221146	-7.295184325993625	-611.9469037912615	-64.50132314410094	-33.72493955472262	0.6142024172733546	0.7216734288824992	-0.2244493241203188	-1.578255769754628	0.4202096946672067	-0.1816886779004327	1.737355932975699	-0.9542654942541678	-0.954265494254163	0.02405734888270938	-0.08041514758477604	0.09709382807424706	0.4273738519917174	-2.929345296947015e-08	6.749227506881351e-07	-9.064467352249364e-08	1.389579404834611e-07	1.398254561956555e-07	-1.107080051807176e-07	1.026592836309046e-07
1.51	-0.4780624375275432	-0.100169488836584	0.769336971512429	1.257356762262696	-0.309262240768323	-0.09071891895960932	-0.3391811899843391	0.5723743365667904	0.5723743365667795	-0.1744544956190174	0.1731569224567285	-0.05210738230078015	-0.06502016496784099	0.8608010313695903	0.3464716756960397	0.4677549927911102	-2.382391212909289	0.06946814946217961	-0.4835303747861452	0.5819517374418841	-1.473553744929843	-1.473553744929861	0.0007611714953160064	-0.01178968168589324	-0.007629688571951693	0.08114045518559176	-0.2589107235908379	0.008203718985108464	-0.01835145255200591	-0.1792229316166568	0.1834514599487776	0.04559393865255543	0.2281139405990268	19.71830911842408	-25.71216648303992	6.504643170926518	-7.029357533715618	-607.4862054865371	-64.69771726060767	-34.41698480185334	0.5630690587774277	0.7010338265489243	-0.2791646206641425	-1.413037218327715	0.3947139053069177	-0.1737833332805417	1.671155439940342	-0.8311230839927833	-0.831123083993317	-0.01012660526025851	-0.03700144662306053	0.09999028708337383	0.4019461370530715	-3.451636614433737e-08	7.163021406016024e-07	-8.502494983431715e-08	1.441012703144182e-07	1.500557420863196e-07	-1.027631252427965e-07	1.046902584518941e-07
1.52	-0.4694278563731369	-0.09667015911608771	0.7739996156693795	1.233465947232096	-0.3085474507569891	-0.09556173685039021	-0.3332784768707935	0.5575992260811605	0.5575992260811463	-0.1744468598304753	0.1730364434768482	-0.05217847769684277	-0.064188292631808	0.8659934125913412	0.3533548877595687	0.4646806066455324	-2.395446726804053	0.07348812934982468	-0.4849688445793318	0.5985176165465821	-1.481266401400428	-1.481266401400451	0.0007628830379995788	-0.01230712585236614	-0.006576865501378621	0.08523222357593591	-0.2502832769895717	0.00747720979923789	-0.01830699959287932	-0.1782191679734973	0.1816918944688823	0.0446959307612344	0.2215505556873608	19.3903957969631	-25.38497377162462	6.589808208649991	-6.728877698847756	-603.1592154734618	-64.93489087553932	-35.08415170804073	0.4681014826307337	0.6746514585447038	-0.3360791466991788	-1.18811493937006	0.417294863477111	-0.1035171526959517	1.649433467818048	-0.7120937174027163	-0.7120937174027893	0.02142480843696801	-0.08106731487351218	0.1121118432190735	0.4243853647960016	-3.945315870947026e-08	7.529949712786328e-07	-8.114767499250883e-08	1.48199907458408e-07	1.600191085008826e-07	-9.367978118538787e-08	1.061974301569903e-07
1.53	-0.4607449968270521	-0.09310326090954088	0.7786287570485981	1.209454375123069	-0.3077925814584233	-0.1004170983116296	-0.3272125151017143	0.5427530952599668	0.5427530952599574	-0.1744392825959237	0.1729108699135422	-0.05223870507161788	-0.06331562876131533	0.8704522812001517	0.3599757448401134	0.4610567252687513	-2.406527441019979	0.07748058612505719	-0.486039782708973	0.6145844844443792	-1.487748702274027	-1.487748702274005	0.0007514591409934026	-0.01280688220849678	-0.005458644708191311	0.08929500267989902	-0.2415968296248863	0.006627948057486181	-0.01828414149320886	-0.1771286612267197	0.1798329611090637	0.04371231509998949	0.2148753032560519	19.02969571388419	-25.017094946046	6.671038710161707	-6.371377221643247	-598.7906658239623	-65.10644322010926	-35.72350803398111	0.4158510335729635	0.6484820841760811	-0.3891492463641327	-1.017005257559187	0.3893326407943819	-0.09921075075871461	1.571775527003704	-0.5846607190603853	-0.5846607190534735	-0.01244486034641969	-0.03425089942683083	0.1131696513093175	0.3962763575293141	-4.40859481267604e-08	7.847083327669489e-07	-7.912175204996667e-08	1.511885586224949e-07	1.696988729720884e-07	-8.338681900102385e-08	1.071480610514498e-07
